<?xml version="1.0"?>
<svg xmlns="http://www.w3.org/2000/svg" viewBox="0 0 80 80">
    <path d="M 40.230469 8 C 33.820907 8 28.734306 9.8702562 25.220703 13.105469 C 21.7071 16.340681 19.813625 20.90666 19.638672 26.087891 L 19.603516 27.121094 L 31.412109 27.121094 L 31.474609 26.1875 C 31.628243 23.844929 32.476914 22.024375 33.857422 20.757812 C 35.23793 19.49125 37.18709 18.748047 39.685547 18.748047 C 44.473849 18.748047 47 22.155323 47 25.242188 C 47 26.929976 46.234233 28.311243 44.917969 29.751953 C 43.601704 31.192663 41.753489 32.615201 39.855469 34.212891 C 36.059433 37.408271 32 41.473648 32 48.183594 L 32 52 L 46 52 L 46 49 C 46 45.876772 47.211799 42.404388 51.023438 39.984375 C 56.778883 36.331544 60.361328 31.611634 60.361328 24.865234 C 60.361328 19.963222 58.300522 15.684437 54.740234 12.697266 C 51.179946 9.7100943 46.158164 8 40.230469 8 z M 40.230469 10 C 45.773774 10 50.317116 11.59764 53.455078 14.230469 C 56.59304 16.863298 58.361328 20.515247 58.361328 24.865234 C 58.361328 30.928834 55.385726 34.847706 49.951172 38.296875 C 45.556809 41.086862 44 45.333228 44 49 L 44 50 L 34 50 L 34 48.183594 C 34 42.265539 37.440571 38.862011 41.144531 35.744141 C 42.996511 34.185206 44.898296 32.739259 46.394531 31.101562 C 47.890767 29.463866 49 27.554898 49 25.242188 C 49 21.043052 45.447245 16.748047 39.685547 16.748047 C 36.784004 16.748047 34.296602 17.640266 32.505859 19.283203 C 30.935008 20.724399 30.046713 22.785749 29.701172 25.121094 L 21.759766 25.121094 C 22.121149 20.847753 23.718354 17.20576 26.574219 14.576172 C 29.664616 11.730634 34.20703 10 40.230469 10 z M 39.074219 12.001953 L 38.259766 12.375 L 38.070312 13.25 L 38.658203 13.925781 L 39.003906 14 L 39.103516 14.003906 L 39.917969 13.630859 L 40.107422 12.755859 L 39.517578 12.080078 L 39.173828 12.005859 L 39.074219 12.001953 z M 43.302734 12.359375 L 42.441406 12.607422 L 42.125 13.445312 L 42.605469 14.201172 L 42.935547 14.326172 L 43.033203 14.34375 L 43.894531 14.097656 L 44.212891 13.259766 L 43.732422 12.503906 L 43.402344 12.378906 L 43.302734 12.359375 z M 47.408203 13.478516 L 46.519531 13.582031 L 46.068359 14.357422 L 46.419922 15.181641 L 46.724609 15.357422 L 46.820312 15.392578 L 47.708984 15.289062 L 48.160156 14.513672 L 47.808594 13.689453 L 47.503906 13.511719 L 47.408203 13.478516 z M 50.341797 15.4375 L 49.701172 16.064453 L 49.820312 16.953125 L 50.066406 17.205078 L 50.146484 17.263672 L 51.033203 17.400391 L 51.673828 16.773438 L 51.554688 15.884766 L 51.308594 15.632812 L 51.226562 15.576172 L 50.341797 15.4375 z M 53.568359 18.337891 L 52.730469 18.658203 L 52.486328 19.521484 L 52.613281 19.849609 L 52.664062 19.935547 L 53.421875 20.414062 L 54.257812 20.09375 L 54.501953 19.230469 L 54.376953 18.902344 L 54.324219 18.816406 L 53.568359 18.337891 z M 55.369141 22.226562 L 54.472656 22.238281 L 53.947266 22.964844 L 53.949219 23.201172 L 53.9375 23.201172 L 53.943359 23.291016 L 53.951172 23.304688 L 53.951172 23.316406 L 53.953125 23.326172 L 53.962891 23.324219 L 54.396484 24.064453 L 55.287109 24.164062 L 55.898438 23.511719 L 55.939453 23.160156 L 55.933594 23.070312 L 55.929688 23.007812 L 55.916016 22.945312 L 55.914062 22.935547 L 55.369141 22.226562 z M 54.623047 26.193359 L 53.824219 26.601562 L 53.669922 26.917969 L 53.642578 27.013672 L 53.806641 27.894531 L 54.609375 28.291016 L 55.408203 27.882812 L 55.564453 27.566406 L 55.591797 27.470703 L 55.427734 26.589844 L 54.623047 26.193359 z M 53.234375 29.953125 L 52.353516 30.107422 L 52.111328 30.365234 L 52.056641 30.449219 L 51.957031 31.339844 L 52.609375 31.953125 L 53.492188 31.796875 L 53.732422 31.541016 L 53.787109 31.457031 L 53.888672 30.566406 L 53.234375 29.953125 z M 49.882812 33.080078 L 49.585938 33.269531 L 49.513672 33.337891 L 49.201172 34.177734 L 49.6875 34.931641 L 50.582031 34.992188 L 50.876953 34.800781 L 50.951172 34.734375 L 51.263672 33.892578 L 50.777344 33.140625 L 49.882812 33.080078 z M 46.853516 35.783203 L 46.548828 35.960938 L 46.472656 36.025391 L 46.126953 36.851562 L 46.580078 37.625 L 47.470703 37.722656 L 47.775391 37.544922 L 47.851562 37.478516 L 48.197266 36.652344 L 47.744141 35.880859 L 46.853516 35.783203 z M 44.611328 38.603516 L 43.716797 38.646484 L 43.445312 38.871094 L 43.378906 38.947266 L 43.167969 39.818359 L 43.736328 40.509766 L 44.632812 40.466797 L 44.904297 40.242188 L 44.96875 40.166016 L 45.181641 39.294922 L 44.611328 38.603516 z M 42.001953 41.886719 L 41.162109 42.197266 L 40.970703 42.494141 L 40.931641 42.585938 L 40.992188 43.480469 L 41.744141 43.966797 L 42.583984 43.654297 L 42.775391 43.359375 L 42.814453 43.267578 L 42.753906 42.373047 L 42.001953 41.886719 z M 40.791016 45.888672 L 40.505859 46.132812 A 1 1 0 0 0 40.216797 46.378906 L 40.109375 46.470703 L 40.078125 46.611328 A 1 1 0 0 0 40 47 A 1 1 0 0 0 41 48 A 1 1 0 0 0 41.931641 47.361328 L 41.949219 47.345703 L 42.027344 47 L 42.03125 46.900391 L 41.970703 46.767578 A 1 1 0 0 0 41.818359 46.427734 L 41.664062 46.083984 L 40.791016 45.888672 z M 39 56 C 34.593567 56 31 59.593567 31 64 C 31 68.406433 34.593567 72 39 72 C 43.406433 72 47 68.406433 47 64 C 47 59.593567 43.406433 56 39 56 z M 39 58 C 42.325553 58 45 60.674447 45 64 C 45 67.325553 42.325553 70 39 70 C 35.674447 70 33 67.325553 33 64 C 33 60.674447 35.674447 58 39 58 z M 43 63 A 1 1 0 0 0 42 64 A 1 1 0 0 0 43 65 A 1 1 0 0 0 44 64 A 1 1 0 0 0 43 63 z M 41.841797 65.828125 A 1 1 0 0 0 41.119141 66.121094 A 1 1 0 0 0 41.119141 67.535156 A 1 1 0 0 0 42.533203 67.535156 A 1 1 0 0 0 42.533203 66.121094 A 1 1 0 0 0 41.841797 65.828125 z M 39 67 A 1 1 0 0 0 38 68 A 1 1 0 0 0 39 69 A 1 1 0 0 0 40 68 A 1 1 0 0 0 39 67 z"/>
</svg>
